<svg id="Layer_1" data-name="Layer 1" xmlns="http://www.w3.org/2000/svg" viewBox="0 0 86.94 74.38"><defs><style>.cls-1{fill:#136aea;}</style></defs><path class="cls-1" d="M43.66,72.85c-4.55-.14-8.45-1.86-10.2-5.79-1.67-3.76-4.13-4.2-7.49-3.91a31.65,31.65,0,0,1-4.77,0,4.31,4.31,0,0,1-4.13-2.81c-.69-2-.39-4.26,1.46-5.22,6.08-3.15,5.93-8.74,5.88-14.21-.05-4.85.3-9.54,2.85-13.8a15,15,0,0,1,9.89-7.44c3.05-.63,4.16-2,3.92-5-.15-2-.43-4.79,2.71-4.7,2.74.08,2.49,2.64,2.36,4.5-.19,2.88.59,4.33,3.72,5.19,8,2.19,12.57,8.44,12.93,16.74.13,3-.08,6,.22,9,.36,3.52.92,7,4.68,8.92A4.54,4.54,0,0,1,70.29,60c-.81,2.65-3,3.18-5.5,3.16-1.6,0-3.2.14-4.78,0-2.76-.3-4.4.56-5.71,3.26C52.21,70.71,48.35,72.75,43.66,72.85Zm19.45-15c-6-6.72-5.12-14.13-5.52-21.3-.45-8.21-5.07-12.64-13.13-12.84C34.61,23.5,29.84,28,29.67,38.15c-.12,6.89-.23,13.69-5.26,19.73ZM37.55,63.44c3.88,5.84,8.77,5.77,12,0Z"/><path class="cls-1" d="M1.49,27.64c.86-11,5.1-19.35,13.91-25.12C17.06,1.43,19,.14,20.53,2.33c1.69,2.46-.8,3.38-2.34,4.37-7.48,4.79-10.67,12-11.67,20.45C6.3,29,6.8,31.55,3.9,31.41S1.46,28.91,1.49,27.64Z"/><path class="cls-1" d="M85.63,26c0,2,1,4.81-1.89,5.26-3.69.56-2.79-2.7-3-4.78-1-8.25-4.36-15.12-11.54-19.81C67.68,5.75,65,5,66.68,2.45s3.77-.92,5.5.25C80.47,8.28,84.78,16.18,85.63,26Z"/><path class="cls-1" d="M73.89,28.59c.13,1.62,0,3.31-2,3.71S69.19,31.24,69,29.49c-.49-4.76-2.16-8.79-6.52-11.39-1.23-.73-2.18-1.93-1.07-3.51s2.64-1.38,4.14-.44A17.18,17.18,0,0,1,73.89,28.59Z"/><path class="cls-1" d="M13.5,28.35a16.88,16.88,0,0,1,7.93-14c1.37-.93,2.89-1.65,4.23,0s.26,3-1.14,3.93c-3.92,2.48-5.72,6.13-6.16,10.59-.18,1.86-.49,3.82-3,3.4S13.49,29.74,13.5,28.35Z"/></svg>