<svg xmlns="http://www.w3.org/2000/svg" viewBox="0 0 5 5"><defs><style>.a{fill:#136aea;}</style></defs><path class="a" d="M2.5,4.51a.61.61,0,0,1-.57-.33C1.84,4,1.7,4,1.51,4a1.22,1.22,0,0,1-.27,0A.25.25,0,0,1,1,3.8a.22.22,0,0,1,.09-.29c.34-.17.33-.49.32-.79a1.5,1.5,0,0,1,.16-.78.84.84,0,0,1,.56-.41c.17,0,.23-.11.22-.28s0-.27.15-.27.14.15.13.26,0,.24.21.29a.94.94,0,0,1,.72.93c0,.17,0,.34,0,.51a.56.56,0,0,0,.27.5A.25.25,0,0,1,4,3.79c0,.15-.17.18-.31.18H3.42a.28.28,0,0,0-.32.19A.66.66,0,0,1,2.5,4.51Zm1.09-.84a1.66,1.66,0,0,1-.31-1.19.68.68,0,0,0-.73-.72.71.71,0,0,0-.83.8,1.61,1.61,0,0,1-.3,1.11ZM2.16,4c.22.33.49.32.67,0Z"/><path class="a" d="M.14,2A1.73,1.73,0,0,1,.92.57c.09-.06.2-.13.29,0s-.05.19-.13.25A1.47,1.47,0,0,0,.42,2c0,.1,0,.25-.14.24S.14,2.05.14,2Z"/><path class="a" d="M4.85,1.89c0,.11.06.27-.11.29S4.59,2,4.57,1.91A1.41,1.41,0,0,0,3.93.81C3.85.75,3.7.71,3.79.57s.21,0,.31,0A1.69,1.69,0,0,1,4.85,1.89Z"/><path class="a" d="M4.19,2c0,.09,0,.19-.11.21s-.15-.06-.16-.16a.79.79,0,0,0-.36-.64c-.07,0-.13-.1-.06-.19s.14-.08.23,0A1,1,0,0,1,4.19,2Z"/><path class="a" d="M.81,2a1,1,0,0,1,.45-.79c.07-.05.16-.09.23,0s0,.17-.06.22a.74.74,0,0,0-.34.6c0,.1,0,.21-.17.19S.81,2.09.81,2Z"/></svg>