<svg xmlns="http://www.w3.org/2000/svg" viewBox="0 0 30 30"><defs><style>.a{fill:#136aea;}</style></defs><path class="a" d="M15,27.06a3.6,3.6,0,0,1-3.43-1.95A2.09,2.09,0,0,0,9.07,23.8a10.82,10.82,0,0,1-1.61,0,1.45,1.45,0,0,1-1.38-.95,1.36,1.36,0,0,1,.49-1.75c2-1.06,2-2.94,2-4.78a8.57,8.57,0,0,1,1-4.64,5.08,5.08,0,0,1,3.32-2.5c1-.21,1.4-.67,1.32-1.68-.05-.67-.14-1.61.91-1.58s.84.89.8,1.52A1.41,1.41,0,0,0,17.1,9.18a5.74,5.74,0,0,1,4.34,5.63c0,1,0,2,.08,3,.12,1.18.31,2.35,1.57,3A1.52,1.52,0,0,1,24,22.74c-.27.89-1,1.07-1.85,1.06-.53,0-1.07.05-1.6,0a1.67,1.67,0,0,0-1.92,1.1A3.83,3.83,0,0,1,15,27.06Zm6.54-5c-2-2.26-1.72-4.75-1.86-7.16-.15-2.76-1.7-4.25-4.41-4.32-3.31-.07-4.91,1.44-5,4.86,0,2.31-.08,4.6-1.77,6.63ZM13,23.89c1.3,2,2.95,1.94,4,0Z"/><path class="a" d="M.84,11.86c.29-3.69,1.71-6.5,4.68-8.44.55-.37,1.2-.8,1.72-.06S7,4.49,6.45,4.83A8.83,8.83,0,0,0,2.53,11.7c-.07.62.09,1.48-.88,1.43S.83,12.29.84,11.86Z"/><path class="a" d="M29.12,11.31c0,.67.33,1.62-.64,1.77-1.24.19-.93-.91-1-1.61A8.71,8.71,0,0,0,23.6,4.82c-.51-.31-1.41-.57-.85-1.42s1.27-.31,1.85.08A10,10,0,0,1,29.12,11.31Z"/><path class="a" d="M25.17,12.18c0,.55,0,1.11-.67,1.25s-.91-.36-1-.95a4.64,4.64,0,0,0-2.19-3.82c-.42-.25-.73-.65-.36-1.18s.89-.47,1.39-.15A5.75,5.75,0,0,1,25.17,12.18Z"/><path class="a" d="M4.88,12.1A5.63,5.63,0,0,1,7.54,7.4c.46-.32,1-.56,1.42,0s.09,1-.38,1.32a4.45,4.45,0,0,0-2.07,3.56c-.06.62-.16,1.28-1,1.14S4.87,12.57,4.88,12.1Z"/></svg>