<svg id="Layer_1" data-name="Layer 1" xmlns="http://www.w3.org/2000/svg" viewBox="0 0 57.23 57.74"><defs><style>.cls-1{fill:#fff;stroke:#000;stroke-miterlimit:10;stroke-width:0.25px;}</style></defs><path class="cls-1" d="M31.88,39.24c0-1.47,0-2.93,0-4.4,0-.56-.15-.72-.72-.74A25.91,25.91,0,0,0,19,36.93,31.33,31.33,0,0,0,4.76,50a25.06,25.06,0,0,0-2,4.51L2.62,55c-.13.39-.3.75-.8.67s-.54-.46-.55-.88c0-1.62.06-3.25.17-4.87A55.24,55.24,0,0,1,4.7,34a34.85,34.85,0,0,1,11-15.48,28,28,0,0,1,14-5.93,12.29,12.29,0,0,1,1.71-.12c.47,0,.57-.19.56-.62q0-4.32,0-8.64c0-.39-.14-.87.37-1.08s.81.11,1.15.41l22.54,20c.77.68.77.9,0,1.57l-22.5,20-.37.31a.76.76,0,0,1-.83.14.69.69,0,0,1-.38-.74V39.24Z"/></svg>