<svg id="Layer_1" data-name="Layer 1" xmlns="http://www.w3.org/2000/svg" viewBox="0 0 94.91 61.47"><path d="M47.59,60.63H4.85c-1.91,0-3.13-.84-3.5-2.41a4.61,4.61,0,0,1-.08-1q0-26.43,0-52.87A3.13,3.13,0,0,1,4.73.88H90.22a3.83,3.83,0,0,1,2.27.51A3,3,0,0,1,93.91,4c0,1.61,0,3.21,0,4.82q0,24.1,0,48.2c0,2.44-1.18,3.61-3.65,3.61Zm40.91-3.1c-.22-.24-.31-.36-.42-.46Q72.84,42,57.61,26.91c-.35-.35-.58-.31-1-.07-2.38,1.52-4.77,3-7.15,4.53a3.27,3.27,0,0,1-3.8,0c-2.28-1.44-4.57-2.86-6.83-4.33a.87.87,0,0,0-1.32.13Q22.43,42.06,7.29,56.91c-.17.16-.42.29-.45.62ZM8.26,4c.3.22.41.31.54.39Q27.94,16.48,47.07,28.61a.86.86,0,0,0,1.09,0L86.24,4.44c.18-.11.45-.15.48-.47ZM4.45,55.17c.31,0,.43-.25.58-.41l29.9-29.33c.49-.47.36-.65-.14-1Q19.9,15.07,5,5.63c-.17-.11-.31-.28-.57-.2ZM90.75,5.3c-.28.15-.44.23-.58.32Q75.32,15,60.46,24.42c-.57.36-.43.55-.05.92q3.75,3.68,7.46,7.37L90,54.56c.21.21.38.52.77.57Z"/></svg>