<svg id="Layer_1" data-name="Layer 1" xmlns="http://www.w3.org/2000/svg" viewBox="0 0 91.91 100.22"><path d="M45.93,99.12H4.87A3.81,3.81,0,0,1,1,95.28C.87,86.71.89,78.14.88,69.56.87,60,.88,50.49.86,41a1.67,1.67,0,0,1,.62-1.39c5.14-4.66,10.25-9.36,15.42-14a2.75,2.75,0,0,0,1-2.36A7,7,0,0,1,21,17a6.5,6.5,0,0,1,4.46-1.32,4.78,4.78,0,0,0,4-1.53c4.06-3.84,8.23-7.55,12.36-11.31a5.81,5.81,0,0,1,8.38,0Q56.9,9,63.65,15.19a1.83,1.83,0,0,0,1.32.52,13.85,13.85,0,0,1,3.4.18A7.07,7.07,0,0,1,74,22.73,3.91,3.91,0,0,0,75.47,26c5,4.5,10,9.09,15,13.65a1.4,1.4,0,0,1,.54,1.13C91,58.9,91.11,77,90.9,95.17a3.87,3.87,0,0,1-2.34,3.64,3.06,3.06,0,0,1-1.43.32ZM46,19H25.46a4,4,0,0,0-4.27,4.24q0,15.6,0,31.2a1.39,1.39,0,0,0,.5,1.15q5.87,5.33,11.71,10.68c.41.38.64.35,1,0,2.49-2.3,5-4.57,7.5-6.85a5.75,5.75,0,0,1,8.09,0c2.49,2.26,5,4.51,7.44,6.8.44.4.7.4,1.13,0q5.84-5.35,11.72-10.68a1.22,1.22,0,0,0,.43-1q0-15.6,0-31.2A4,4,0,0,0,66.36,19ZM6.92,95.81c26.1.18,52,.19,78,0l-.68-.65L48,62.14c-1.51-1.38-2.61-1.38-4.13,0L11.72,91.43ZM4.31,93.64c.28-.24.44-.35.58-.48q13-11.85,26-23.69c.48-.44.35-.63-.05-1l-26-23.68c-.17-.16-.29-.4-.65-.41C4.2,60.76,4.14,77.11,4.31,93.64Zm83.4-49.28a1.39,1.39,0,0,0-.7.47Q74,56.65,61,68.46c-.46.42-.47.62,0,1.05q13,11.8,26,23.63c.15.14.26.37.59.33C87.74,77.13,87.7,60.79,87.71,44.36ZM59.2,15.66c-.19-.19-.26-.28-.35-.36l-11-10A2.55,2.55,0,0,0,44,5.3q-5.43,4.93-10.85,9.88c-.13.12-.34.2-.34.48ZM17.82,29.18l-1,.87c-3.68,3.36-7.36,6.73-11.06,10.06-.49.44-.45.64,0,1q5.75,5.19,11.45,10.41c.16.14.27.36.58.34Zm56.26,0c0,.28,0,.37,0,.46V51.41c0,.16-.1.39.09.47s.38-.16.52-.3c3.86-3.5,7.7-7,11.56-10.5.42-.38.36-.56,0-.9C83.55,37.8,80.93,35.4,78.3,33Z"/><path d="M46,40.71H63.61a2.16,2.16,0,0,1,1.28.28,1.58,1.58,0,0,1,.75,1.59A1.53,1.53,0,0,1,64.47,44a3.33,3.33,0,0,1-.95.09H28.4a4.8,4.8,0,0,1-.66,0,1.66,1.66,0,0,1,0-3.3,4.85,4.85,0,0,1,.66,0Z"/><path d="M46,48.6H63.67c1.42,0,2.24.93,1.91,2.13a1.69,1.69,0,0,1-1.82,1.21H28.93c-.37,0-.74,0-1.11,0a1.62,1.62,0,0,1-1.55-1.51,1.57,1.57,0,0,1,1.21-1.71,3.54,3.54,0,0,1,1-.1Z"/><path d="M46,24.94h17.7a2,2,0,0,1,1.28.29,1.58,1.58,0,0,1,.68,1.68,1.56,1.56,0,0,1-1.34,1.31,4.54,4.54,0,0,1-.74,0H28.35a3.64,3.64,0,0,1-.81,0A1.64,1.64,0,0,1,27.73,25c.22,0,.44,0,.67,0Z"/><path d="M46,32.82H63.81a1.65,1.65,0,0,1,1.73,2.24,1.53,1.53,0,0,1-1.33,1,8.62,8.62,0,0,1-.88,0H28.5c-1.48,0-2.24-.56-2.25-1.64s.76-1.68,2.29-1.68Z"/></svg>