<svg id="Layer_1" data-name="Layer 1" xmlns="http://www.w3.org/2000/svg" viewBox="0 0 91.91 100.22"><path d="M90.94,40.86a1.35,1.35,0,0,0-.54-1.13c-5-4.56-10-9.15-15-13.65-.83-.73-11.42-10.44-11.82-10.8Q56.8,9.1,50,3a5.81,5.81,0,0,0-8.38,0c-4.13,3.76-8.3,7.47-12.35,11.31C28.1,15.4,17.5,25,16.79,25.66,11.62,30.29,6.52,35,1.37,39.65A1.7,1.7,0,0,0,.75,41c0,9.54,0,19.08,0,28.61,0,8.58,0,17.15.12,25.72a3.82,3.82,0,0,0,3.86,3.84H45.82q20.61,0,41.21,0a3.06,3.06,0,0,0,1.43-.32,3.89,3.89,0,0,0,2.34-3.64C91,77.13,90.88,59,90.94,40.86ZM5.67,40.2C9.38,36.87,40.3,8.68,43.92,5.39a2.56,2.56,0,0,1,3.88,0c3.56,3.24,29,26.44,30.39,27.69,2.63,2.39,5.25,4.79,7.89,7.17.38.34.44.52,0,.9-3.86,3.49-7.7,7-11.56,10.5l-4.35,4Q64.31,61,58.47,66.33c-.44.41-.69.41-1.13,0-2.47-2.29-5-4.54-7.44-6.8a5.76,5.76,0,0,0-8.1,0c-2.5,2.28-5,4.55-7.49,6.85-.39.36-.61.39-1,0Q27.46,61,21.57,55.71l-4.43-4.05c-3.82-3.47-7.62-6.95-11.45-10.41C5.23,40.84,5.19,40.64,5.67,40.2ZM4.2,93.73C4,77.2,4.09,60.85,4.08,44.47c.36,0,.49.25.66.41l26,23.68c.4.37.53.56,0,1q-13,11.84-26,23.69ZM6.82,95.9l4.79-4.38L43.77,62.24c1.53-1.39,2.62-1.39,4.13,0l36.27,33,.68.65C58.8,96.09,32.92,96.08,6.82,95.9Zm80.67-2.34c-.32,0-.43-.19-.58-.33q-13-11.81-26-23.63c-.47-.43-.46-.63,0-1q13-11.8,26-23.63a1.39,1.39,0,0,1,.7-.47C87.59,60.88,87.64,77.22,87.49,93.56Z"/></svg>