<svg id="Layer_1" data-name="Layer 1" xmlns="http://www.w3.org/2000/svg" viewBox="0 0 86.94 79.13"><defs><style>.cls-1{fill:#136aea;}</style></defs><path class="cls-1" d="M77.16,36.32l4.68-7.71c.73-1.2,1.59-2.37,3.14-1.4s1,2.27.24,3.48c-2.55,4.21-5.1,8.43-7.69,12.63-1.23,2-2.18,2.19-4.12.76-4.2-3.11-8.36-6.27-12.55-9.4-1.09-.82-2-1.77-1-3.14s2.25-.92,3.43,0c3,2.25,6,4.47,9.22,6.9a23.54,23.54,0,0,0-1.39-9.11c-4.54-14.74-19.56-25-34.5-23.62C20,7.21,7.16,19.48,5.3,35.67a34.08,34.08,0,0,0,23.59,36.6c15.42,4.89,32-2,39.88-16.52.52-.94.65-2.73,2.57-1.82,1.51.71,1.91,2.11.91,3.9-6,10.85-15.11,17.61-27.37,19.56A37.82,37.82,0,0,1,1.83,47.81C-2.33,27.41,9.67,7.88,29.54,2.68,51.39-3,73.8,12.26,76.51,34.73c.06.49.11,1,.17,1.46Z"/><path class="cls-1" d="M41.75,29.48c0,4.19,0,8.39,0,12.58,0,2-.84,3-2.89,3-4.93,0-9.86,0-14.8,0-1.7,0-3-.63-3-2.46s1.4-2.35,3.09-2.32c3.68,0,7.37,0,11,0,1.47,0,1.86-.48,1.85-1.91-.07-6.69,0-13.39,0-20.08,0-.52,0-1,0-1.55-.07-1.75.43-3.24,2.43-3.21,1.84,0,2.3,1.46,2.28,3.14C41.72,20.94,41.75,25.21,41.75,29.48Z"/></svg>