<svg id="Layer_1" data-name="Layer 1" xmlns="http://www.w3.org/2000/svg" viewBox="0 0 57.23 57.74"><defs><style>.cls-1{fill:#fff;stroke:#000;stroke-miterlimit:10;stroke-width:0.25px;}</style></defs><path class="cls-1" d="M25.71,38.9c0-1.42,0-2.84,0-4.25,0-.55.14-.71.69-.72a25.26,25.26,0,0,1,11.77,2.73,30.27,30.27,0,0,1,13.78,12.6,23.92,23.92,0,0,1,1.91,4.37c.06.17.11.34.16.5.13.38.29.73.78.66s.52-.45.53-.85c0-1.58,0-3.15-.16-4.71A53.8,53.8,0,0,0,52,33.82a33.69,33.69,0,0,0-10.6-15,27.15,27.15,0,0,0-13.5-5.74A13,13,0,0,0,26.25,13c-.45,0-.55-.17-.54-.59q0-4.19,0-8.36c0-.38.14-.84-.36-1s-.79.1-1.11.39L2.47,22.73c-.75.65-.75.87,0,1.52L24.23,43.62c.11.1.23.21.35.3a.74.74,0,0,0,.8.14c.33-.14.37-.41.37-.72,0-1.48,0-3,0-4.44Z"/></svg>