<svg id="Layer_1" data-name="Layer 1" xmlns="http://www.w3.org/2000/svg" viewBox="0 0 53.77 57.74"><defs><style>.cls-1{fill:#fff;stroke:#000;stroke-miterlimit:10;stroke-width:0.25px;}</style></defs><path class="cls-1" d="M44.38,1a8.37,8.37,0,1,1-5.78,14.4.67.67,0,0,0-1-.13q-9.78,5.47-19.57,10.91c-.43.24-.63.44-.49,1a7,7,0,0,1,0,3.57c-.1.41,0,.57.37.76q9.9,5.51,19.78,11a.57.57,0,0,0,.83-.11A8.37,8.37,0,0,1,52.64,47a8.37,8.37,0,1,1-16.4-.59A.47.47,0,0,0,36,45.8Q26,40.25,16,34.67c-.42-.24-.58,0-.82.21a8.38,8.38,0,1,1-.08-12.13.79.79,0,0,0,1.14.14Q26,17.42,35.76,12a.72.72,0,0,0,.44-.95A8.33,8.33,0,0,1,44.38,1Z"/></svg>