<svg id="Layer_1" data-name="Layer 1" xmlns="http://www.w3.org/2000/svg" xmlns:xlink="http://www.w3.org/1999/xlink" viewBox="0 0 81.17 78.23"><defs><style>.cls-1{fill:url(#linear-gradient);}.cls-2{fill:none;stroke:#d6a932;stroke-width:4px;}</style><linearGradient id="linear-gradient" x1="-400.97" y1="1141.4" x2="-325.65" y2="1141.4" gradientTransform="matrix(-0.81, -0.59, 0.59, -0.81, -926.51, 753.94)" gradientUnits="userSpaceOnUse"><stop offset="0" stop-color="#fbc02d"/><stop offset="1" stop-color="#fedd37"/></linearGradient></defs><path class="cls-1" d="M18.39,74.54l3.62-25a.64.64,0,0,0-.2-.55L3.31,31.92a.62.62,0,0,1,.32-1.07l24.85-4.27a.65.65,0,0,0,.46-.36L39.51,3.33a.62.62,0,0,1,1.11,0L52.36,25.62a.62.62,0,0,0,.48.32l25,3A.63.63,0,0,1,78.25,30L60.66,48a.63.63,0,0,0-.17.55L65.4,73.33a.63.63,0,0,1-.89.68L41.9,62.86a.6.6,0,0,0-.58,0l-22,12.31A.62.62,0,0,1,18.39,74.54Z"/><path class="cls-2" d="M40.58,3.28l11.78,22.3a.6.6,0,0,0,.48.33l25,2.94a.63.63,0,0,1,.37,1.06L60.68,48a.64.64,0,0,0-.16.56l4.94,24.73a.63.63,0,0,1-.89.68L41.94,62.84a.63.63,0,0,0-.58,0l-22,12.34a.62.62,0,0,1-.92-.63L22,49.6a.6.6,0,0,0-.19-.54L3.31,32a.63.63,0,0,1,.32-1.08l24.84-4.3a.65.65,0,0,0,.46-.36L39.47,3.32A.62.62,0,0,1,40.58,3.28Z"/></svg>