<svg id="Layer_1" data-name="Layer 1" xmlns="http://www.w3.org/2000/svg" viewBox="0 0 81.17 78.23"><defs><style>.cls-1{fill:none;stroke:#000;stroke-width:5px;}</style></defs><path class="cls-1" d="M40.77,3.9,52.22,25.58a.59.59,0,0,0,.46.32L77,28.76a.6.6,0,0,1,.37,1L60.32,47.37a.6.6,0,0,0-.16.54L65,72a.61.61,0,0,1-.86.67l-22-10.82a.62.62,0,0,0-.56,0l-21.38,12a.61.61,0,0,1-.9-.62l3.49-24.26a.64.64,0,0,0-.19-.54l-18-16.62a.6.6,0,0,1,.31-1L29,26.55a.6.6,0,0,0,.45-.35L39.69,3.93A.6.6,0,0,1,40.77,3.9Z"/></svg>