<svg id="Layer_1" data-name="Layer 1" xmlns="http://www.w3.org/2000/svg" viewBox="0 0 95.32 56.76"><defs><style>.cls-1{fill:#fff;stroke:#000;stroke-width:0.25px;}</style></defs><path class="cls-1" d="M92.37,9.83c-2.89,1.13-5.79,2.23-8.68,3.33-5.75,2.2-11.49,4.42-17.26,6.58a2.44,2.44,0,0,0-.32.15c0-2.54,0-5.07-.09-7.61a10.22,10.22,0,0,0-10.12-10c-14.46-.15-28.92-.1-43.38,0a10.23,10.23,0,0,0-8.33,4.5,8.08,8.08,0,0,0-2,4.61c0,13.19-.42,35.59.68,38.08,1.62,3.65,5.9,6.11,10.32,6.12,13.69,0,27.37,0,41.05,0a17.28,17.28,0,0,0,3.28-.26A10.48,10.48,0,0,0,66,45.56q0-3.84.07-7.68a2.27,2.27,0,0,0,.34.15c7.17,2.71,14.28,5.51,21.46,8.2a28.59,28.59,0,0,0,5.7,2V9.58A3.22,3.22,0,0,0,92.37,9.83ZM55.84,51.9c-7.24,0-14.49,0-21.74,0h0c-6.92,0-13.83-.1-20.75,0A7.29,7.29,0,0,1,5.9,46.52,6.69,6.69,0,0,1,5.74,45c0-10.73,0-21.45,0-32.18a7,7,0,0,1,6.8-6.94c5.36,0,10.73,0,16.09,0,8.8,0,17.6.07,26.4,0a7.25,7.25,0,0,1,7.38,5.35,6.51,6.51,0,0,1,.19,1.64q0,16.08,0,32.17A7,7,0,0,1,55.84,51.9ZM89,29V41.3c0,1.34,0,1.34-1.54.76C82,40,76.53,37.9,71.06,35.86c-.61-.22-.78-.44-.78-.88,0-4.07,0-8.14,0-12.2,0-.38.07-.63.65-.85,5.67-2.13,11.31-4.31,17-6.48C89,15,89,15.54,89,16.13Z"/><path class="cls-1" d="M49.23,38.63a36.14,36.14,0,0,0-7.91-3.84,1,1,0,0,0-1.22.41,23.05,23.05,0,0,0-1.17,2,1,1,0,0,1-1.56.47,4.13,4.13,0,0,1-.63-.47c-2.48-2.16-4.83-4.46-7.1-6.83q-2-2.12-3.95-4.3c-.92-1.05-.77-1.64.48-2.24a11,11,0,0,0,1.68-1,1,1,0,0,0,.4-1.23c-.29-.79-.57-1.58-.9-2.35a33.16,33.16,0,0,0-2.84-5.45c-.22-.32-.42-.69-.93-.6-2.75.5-5.45,2.46-5,6.23a9.17,9.17,0,0,0,.71,2.34,35.85,35.85,0,0,0,5.54,8.86A47.28,47.28,0,0,0,40,43.21a9,9,0,0,0,4.37,1.29,4.21,4.21,0,0,0,1.74-.25c2.2-.85,3.19-2.61,3.63-4.8C49.78,39,49.52,38.82,49.23,38.63Z"/></svg>